<?xml version="1.0" encoding="UTF-8"?> <!-- Generator: Adobe Illustrator 21.0.0, SVG Export Plug-In . SVG Version: 6.00 Build 0) --> <svg xmlns="http://www.w3.org/2000/svg" xmlns:xlink="http://www.w3.org/1999/xlink" id="Capa_1" x="0px" y="0px" viewBox="0 0 86 88" style="enable-background:new 0 0 86 88;" xml:space="preserve"> <style type="text/css"> .st0{fill:none;stroke:#AF9B54;stroke-width:1.4;stroke-miterlimit:10;} </style> <g> <path class="st0" d="M83,59.8c0,0-27.2,14-35.2,23.5"></path> <path class="st0" d="M83,49c0,0-44.5,8.8-65.8,34.2"></path> <path class="st0" d="M83,40.8c0,0-46.2,0.8-78.5,29.2"></path> <path class="st0" d="M3.5,40.8c0,0,28.2,0.3,40.2,7.4"></path> <path class="st0" d="M32.5,19.2c0,0,15,8.2,13.8,21.5"></path> <path class="st0" d="M38,34c0,0-13.5,1.9-19-5.2c0,0,2.2-4.8,5.8-6.3c0,0-5.5-7.8-2.5-14.2c0,0,8.5-2.5,12.8,2.5c0,0,3-3.8,6.5-5 c0,0,13.1,5.2,2.2,24.2"></path> <path class="st0" d="M53,12.5h5.8c0,0,2.8,6-2.9,12l5.9,4.3c0,0,0.5,5.1-16.6,4.1"></path> </g> </svg> 