<?xml version="1.0" encoding="UTF-8"?> <svg xmlns="http://www.w3.org/2000/svg" id="Capa_1" data-name="Capa 1" viewBox="0 0 100 90"><defs><style>.cls-1{fill:#b09c54;}</style></defs><title>iconos web martino</title><g id="LG11Os.tif"><path class="cls-1" d="M65.65,41.8A21.41,21.41,0,1,1,50,69.12C47.28,76.51,42.31,81.4,34.77,83.4a20.38,20.38,0,0,1-14.23-1.34A21.4,21.4,0,0,1,34.29,41.78c-4.62-5.34-6.51-11.43-5.3-18.34a20.69,20.69,0,0,1,7.32-12.56,21.28,21.28,0,0,1,27.26-.1,21.33,21.33,0,0,1,7.36,20.74A21.58,21.58,0,0,1,65.65,41.8ZM49,62.8A19.51,19.51,0,1,0,29.52,82.2,19.51,19.51,0,0,0,49,62.8ZM70.4,82.19A19.51,19.51,0,1,0,50.93,63.06,19.5,19.5,0,0,0,70.4,82.19Zm-.89-54.93A19.52,19.52,0,1,0,50.32,46.79,19.51,19.51,0,0,0,69.51,27.27ZM54.65,48.2a23.67,23.67,0,0,1-9.54-.13A24,24,0,0,1,50,56.19,25.4,25.4,0,0,1,54.65,48.2Z"></path><path class="cls-1" d="M29.48,79A16.31,16.31,0,1,1,45.85,63,16.35,16.35,0,0,1,29.48,79Zm6.27-16.26h0c0-4.12,0-8.23,0-12.35A1,1,0,0,0,35,49.29a14.59,14.59,0,0,0-10.76-.07,1.25,1.25,0,0,0-1,1.38q0,12.14,0,24.29a1.11,1.11,0,0,0,.81,1.22A14.51,14.51,0,0,0,35,76.1,1,1,0,0,0,35.76,75C35.74,70.91,35.75,66.83,35.75,62.74Zm1.88,12c4.2-3.12,6.43-7.09,6.38-12.16s-2.24-8.85-6.38-11.87ZM21.46,50.67c-4.56,3.47-6.77,7.85-6.29,13.39a14.16,14.16,0,0,0,6.29,10.62Z"></path><path class="cls-1" d="M54.14,62.66A16.32,16.32,0,1,1,70.47,79,16.38,16.38,0,0,1,54.14,62.66Zm10.1.06h0c0,4.09,0,8.18,0,12.27A1,1,0,0,0,65,76.13a14.52,14.52,0,0,0,10.91,0,1,1,0,0,0,.75-1.1q0-12.27,0-24.54a1.11,1.11,0,0,0-.86-1.2,14.56,14.56,0,0,0-10.75,0,1.08,1.08,0,0,0-.84,1.19C64.26,54.54,64.24,58.63,64.24,62.72Zm-1.88-12c-4.16,3-6.36,7-6.37,12s2.19,9,6.37,12Zm16.23,0V74.58a14.43,14.43,0,0,0,0-23.84Z"></path><path class="cls-1" d="M66.3,27.33A16.3,16.3,0,1,1,50.33,11,16.36,16.36,0,0,1,66.3,27.33Zm-22.48,0c0,4.09,0,8.18,0,12.28a1,1,0,0,0,.72,1.11,14.58,14.58,0,0,0,10.84,0,1.09,1.09,0,0,0,.84-1.2q0-12.28,0-24.55a1,1,0,0,0-.81-1.13,14.5,14.5,0,0,0-10.76,0,1.09,1.09,0,0,0-.83,1.2C43.83,19.1,43.81,23.19,43.81,27.29Zm-1.91-12c-4.49,3.38-6.68,7.66-6.32,13A14.15,14.15,0,0,0,41.9,39.24Zm16.22,0v24c4.08-3,6.27-6.9,6.32-11.84S62.29,18.4,58.12,15.27Z"></path></g></svg> 