<?xml version="1.0" encoding="UTF-8"?> <svg xmlns="http://www.w3.org/2000/svg" id="Capa_1" data-name="Capa 1" viewBox="0 0 100 90"><defs><style>.cls-1{fill:none;stroke:#b09c54;stroke-miterlimit:10;stroke-width:1.4px;}</style></defs><title>iconos web martino</title><path class="cls-1" d="M26.74,76.25v-.56s6.81-1.34,7-4.25.45-19.33-.22-19.55-8.27-1.12-9.61-7.6,5.59-18.21,5.59-18.21H40.64s6.93,11.73,5.59,18.21-8.82,7.37-9.5,7.6-.56,16.65-.34,19.55,7,4.25,7,4.25v.56ZM75.9,34.9a6.66,6.66,0,0,0-1.45-2.35c-1.71-1.52-4-2.93-4.24-5.37-.15-1.75-.52-10-.44-11.52,0-.31.15-.59.18-.9a10.09,10.09,0,0,0-.44-3.49,29.11,29.11,0,0,0-3-.11h0a29.11,29.11,0,0,0-3,.11A10.09,10.09,0,0,0,63,14.76c0,.31.16.59.18.9.08,1.55-.29,9.78-.44,11.52-.2,2.43-2.53,3.84-4.24,5.37A6.66,6.66,0,0,0,57,34.9c-.84,2.73.2,38.78.13,41.6,1.3,1.68,6.65,2.36,9.26,2.34h.1c2.61,0,8-.67,9.26-2.34C75.7,73.68,76.74,37.63,75.9,34.9Z"></path></svg> 