<?xml version="1.0" encoding="UTF-8"?> <svg xmlns="http://www.w3.org/2000/svg" id="Capa_1" data-name="Capa 1" viewBox="0 0 100 90"><defs><style>.cls-1{fill:#b09c54;}</style></defs><title>iconos web martino</title><g id="QbNRrk.tif"><path class="cls-1" d="M49.52,83.19a9.42,9.42,0,0,1-.8-.86A269.41,269.41,0,0,1,33.86,59.78a108.44,108.44,0,0,1-9.17-18.89c-2.75-7.89-1.41-15.23,3.09-22A25.81,25.81,0,0,1,46.63,7.05,25.66,25.66,0,0,1,68,13.93,26.53,26.53,0,0,1,76.52,30.1a24,24,0,0,1-1.64,12,114.75,114.75,0,0,1-9.31,18.65c-4.42,7.49-9.28,14.69-14.39,21.72a7,7,0,0,1-.71.73Zm.46-3.5.56-.75c4.66-6.5,9.11-13.15,13.17-20A113.92,113.92,0,0,0,72.38,41.6a22.72,22.72,0,0,0,1.07-14,24,24,0,0,0-26.9-18C37.76,11,31.44,15.74,27.83,23.87a21.07,21.07,0,0,0-1,15.48,75.27,75.27,0,0,0,5,11.72A227.85,227.85,0,0,0,46.44,74.66C47.58,76.31,48.75,77.95,50,79.69Z"></path><path class="cls-1" d="M61.45,33.53a11.45,11.45,0,1,1-22.9,0,11.45,11.45,0,0,1,22.9,0ZM50.07,24.64a8.91,8.91,0,1,0,8.84,8.91A8.76,8.76,0,0,0,50.07,24.64Z"></path></g></svg> 